<svg width="248" height="32" fill="none" xmlns="http://www.w3.org/2000/svg"><path d="M216.829.002a1.06 1.06 0 00-1.06 1.06v29.715c0 .585.475 1.06 1.06 1.06h29.714a1.06 1.06 0 001.06-1.06V26.53c0-.585-.475-1.062-1.06-1.062h-21.225a1.062 1.062 0 01-1.063-1.06L224.229.95s.073-.946-1.036-.95h-6.366l.002.002zM185.447 32a6.364 6.364 0 01-6.368-6.366V6.53a6.366 6.366 0 016.368-6.368h21.223a6.367 6.367 0 016.368 6.368v19.103A6.365 6.365 0 01206.67 32h-21.223zm4.243-6.366h12.735c1.172 0 2.122-.95 2.122-2.125V8.652c0-1.17-.95-2.12-2.122-2.12H189.69c-1.172 0-2.122.95-2.122 2.12v14.857c0 1.175.95 2.125 2.122 2.125zM148.569 31.912a6.37 6.37 0 01-6.368-6.368V6.442a6.369 6.369 0 016.368-6.367h21.226a6.367 6.367 0 016.366 6.367v19.102a6.367 6.367 0 01-6.366 6.368h-21.226zm4.244-6.37h12.734c1.173 0 2.125-.95 2.125-2.12V8.564c0-1.172-.95-2.124-2.125-2.124h-12.734c-1.171 0-2.123.95-2.123 2.124v14.858c0 1.17.95 2.12 2.123 2.12zM106.118 1.136c0-.587.478-1.063 1.063-1.063h31.837c.585 0 1.06.476 1.06 1.063v4.243a1.06 1.06 0 01-1.06 1.06h-10.614c-.585 0-1.062.478-1.062 1.063v23.346c0 .585-.473 1.062-1.061 1.062h-6.366a1.063 1.063 0 01-1.062-1.062V7.502c0-.585-.475-1.062-1.063-1.062h-10.611a1.062 1.062 0 01-1.063-1.06V1.135h.002zM70.038 12.808a6.367 6.367 0 006.366 6.368h16.98c1.173 0 2.123.95 2.123 2.123v2.123c0 1.17-.95 2.12-2.123 2.12H79.59a1.06 1.06 0 01-1.06-1.058c0-.587-.475-1.063-1.06-1.063h-6.366a1.06 1.06 0 00-1.06 1.06v1.061a6.367 6.367 0 006.365 6.368h21.226a6.37 6.37 0 006.368-6.368v-6.366a6.368 6.368 0 00-6.368-6.368h-16.98a2.123 2.123 0 01-2.123-2.123v-2.12c0-1.173.95-2.125 2.123-2.125H94.45c.585 0 1.06.477 1.06 1.062 0 .585.475 1.062 1.062 1.062h6.366c.586 0 1.063-.477 1.063-1.062V6.44A6.367 6.367 0 0097.634.073H76.408a6.367 6.367 0 00-6.366 6.367v6.368h-.004zM33.958 1.136c0-.587.475-1.063 1.06-1.063h31.835c.587 0 1.06.476 1.06 1.063v4.243a1.06 1.06 0 01-1.06 1.06H43.507c-.587 0-1.062.478-1.062 1.063v4.246c0 .585.475 1.06 1.062 1.06H64.73c.588 0 1.06.475 1.06 1.06v4.246c0 .587-.475 1.062-1.06 1.062H43.507c-.587 0-1.062.475-1.062 1.063v4.243c0 .587.475 1.06 1.062 1.06h23.346c.587 0 1.06.477 1.06 1.063v4.245c0 .585-.475 1.063-1.06 1.063H35.018c-.587 0-1.06-.478-1.06-1.063V1.136zM1.06 31.912c-.585 0-1.06-.477-1.06-1.062V1.138C0 .55.475.075 1.06.075h29.715c.587 0 1.06.476 1.06 1.063V5.38a1.06 1.06 0 01-1.06 1.06H9.55c-.585 0-1.06.478-1.06 1.063v4.245c0 .586.475 1.06 1.06 1.06h19.103c.587 0 1.06.476 1.06 1.061v4.246c0 .587-.475 1.062-1.06 1.062H9.55c-.585 0-1.06.475-1.06 1.062v10.612c0 .585-.475 1.062-1.06 1.062H1.062l-.002-.002z" fill="#23AA08"/></svg>