<?xml version="1.0" encoding="UTF-8"?>
<svg id="Layer_1" data-name="Layer 1" xmlns="http://www.w3.org/2000/svg" viewBox="0 0 500 196.4">
  <defs>
    <style>
      .cls-1 {
        fill: #fff;
      }

      .cls-2 {
        fill: #ec1c2e;
      }

      .cls-3 {
        fill: #8ac650;
      }

      .cls-4 {
        fill: #221f1f;
      }
    </style>
  </defs>
  <g>
    <path class="cls-3" d="m63.97,155.12c-1.71,0-3.1.53-4.14,1.58-1.52,1.53-2.27,4.15-2.24,7.79l-.05,5.26h-.83l-1.47,2.88h2.29v23.78l3.35-1.12v-22.66h3.98v-2.88h-3.93v-4.83c0-4.93.89-6.68,3.41-6.68.23,0,.42,0,.88.05l.2.02v-3.06l-.15-.03c-.58-.1-.92-.1-1.31-.1Z"/>
    <path class="cls-3" d="m77.65,168.93c-2.66,0-5.16.97-6.85,2.66-1.87,1.87-2.94,4.38-2.94,6.9,0,5.52,4.3,9.84,9.79,9.84s9.93-4.15,9.93-9.65-4.18-9.74-9.93-9.74Zm.05,16.28c-3.65,0-6.3-2.83-6.3-6.73s2.79-6.49,6.49-6.49,6.3,2.97,6.3,6.77-2.79,6.44-6.49,6.44Z"/>
    <path class="cls-3" d="m99.18,169.41c-1.18,0-2.19.53-3.22,1.71v-1.38h-3.26v17.78h3.26v-9.32c0-3.37,1.03-5.64,2.56-5.64.76,0,1.41.75,2,2.3l.13.34,2.01-3.09-.05-.1c-.91-1.73-2.07-2.61-3.43-2.61Z"/>
    <path class="cls-3" d="m131.95,171.32c-1.36-1.33-3.18-2.06-5.17-2.06-4.85,0-8.51,4.17-8.51,9.7s3.52,9.22,8.18,9.22c2.01,0,3.93-.74,5.59-2.14v1.48h3.3v-17.88h-3.35l-.04,1.68Zm-5.17,13.79c-3.05,0-5.02-2.55-5.02-6.49,0-3.68,2.08-6.25,5.07-6.25s5.07,2.55,5.07,6.35-2.06,6.39-5.12,6.39Z"/>
    <path class="cls-3" d="m159.86,172.14c.81,0,1.44.07,2.18.23l.18.04.65-2.83-.19-.03c-1.18-.2-2.13-.29-3.01-.29-3.76,0-6.38,2.22-6.38,5.39,0,1.95.78,3.05,3.49,4.88,2.08,1.4,2.43,1.96,2.43,2.92,0,1.64-1.47,2.7-3.74,2.7-.64,0-1.56-.06-2.72-.19l-.17-.02-.49,2.72.18.03c1.33.25,2.19.33,3.3.33,4.11,0,7.09-2.37,7.09-5.62,0-2.11-.95-3.46-3.77-5.36-1.89-1.26-2.19-1.72-2.19-2.54,0-1.42,1.28-2.37,3.18-2.37Z"/>
    <path class="cls-3" d="m178.75,178.82c0,1.7-.06,2.54-.23,3.47-.37,1.92-1.95,3.21-3.94,3.21-1.35,0-2.43-.58-3.2-1.71-.65-1.02-.82-2.11-.82-5.11v-8.94h-3.35v9.27c0,2.4.15,3.8.53,4.84,1.06,2.85,3.67,4.61,6.8,4.61,3.41,0,6.17-2.06,7.04-5.24.32-1.14.43-2.13.43-3.79v-9.69h-3.26v9.08Z"/>
    <path class="cls-3" d="m193.75,172.14c.81,0,1.44.07,2.18.23l.18.04.65-2.83-.19-.03c-1.18-.2-2.13-.29-3.01-.29-3.76,0-6.38,2.22-6.38,5.39,0,1.95.78,3.05,3.49,4.88,2.08,1.4,2.43,1.96,2.43,2.92,0,1.64-1.47,2.7-3.74,2.7-.64,0-1.56-.06-2.72-.19l-.17-.02-.49,2.72.18.03c1.33.25,2.19.33,3.3.33,4.11,0,7.09-2.37,7.09-5.62,0-2.11-.95-3.46-3.77-5.36-1.89-1.26-2.19-1.72-2.19-2.54,0-1.42,1.28-2.37,3.18-2.37Z"/>
    <polygon class="cls-3" points="205.62 160.21 202.29 162.97 202.22 163.02 202.22 169.74 201.4 169.74 199.88 172.66 202.22 172.66 202.22 187.52 205.62 187.52 205.62 172.66 209.31 172.66 209.31 169.74 205.62 169.74 205.62 160.21"/>
    <path class="cls-3" d="m225.61,171.32c-1.36-1.33-3.18-2.06-5.17-2.06-4.85,0-8.51,4.17-8.51,9.7s3.52,9.22,8.18,9.22c2.01,0,3.93-.74,5.59-2.14v1.48h3.3v-17.88h-3.35l-.04,1.68Zm-5.17,13.79c-3.05,0-5.02-2.55-5.02-6.49,0-3.68,2.08-6.25,5.07-6.25s5.07,2.55,5.07,6.35-2.06,6.39-5.12,6.39Z"/>
    <rect class="cls-3" x="234.97" y="160.04" width="3.21" height="4.72"/>
    <rect class="cls-3" x="234.97" y="169.74" width="3.21" height="17.78"/>
    <path class="cls-3" d="m250.3,169.74h-6.1v17.78h3.3v-14.72h2.75c1.91-.06,3.26.35,4.11,1.21.94.94,1.36,2.53,1.28,4.85v8.65h3.4v-9.55c.07-2.69-.58-4.74-1.93-6.11-1.45-1.46-3.73-2.19-6.82-2.13Z"/>
    <path class="cls-3" d="m277.63,171.32c-1.36-1.33-3.18-2.06-5.17-2.06-4.85,0-8.51,4.17-8.51,9.7s3.52,9.22,8.18,9.22c2.01,0,3.93-.74,5.59-2.14v1.48h3.3v-17.88h-3.35l-.04,1.68Zm-5.17,13.79c-3.05,0-5.02-2.55-5.02-6.49,0-3.68,2.08-6.25,5.07-6.25s5.07,2.55,5.07,6.35-2.06,6.39-5.12,6.39Z"/>
    <path class="cls-3" d="m296.02,169.6c-1.37-.32-2.76-.43-5.68-.43v-14.65l-3.35,1.12v31.88h4.16c2.67,0,4.14-.13,5.44-.48,3.96-1.11,6.43-4.42,6.43-8.65,0-4.53-2.62-7.82-7-8.79Zm-5.68,2.73h2.04c4.74,0,7.25,2.13,7.25,6.16,0,2.62-1.44,4.78-3.66,5.5-1.35.45-1.95.51-5.62.51v-12.17Z"/>
    <polygon class="cls-3" points="308.19 187.52 311.54 187.52 311.54 154.47 308.19 155.64 308.19 187.52"/>
    <path class="cls-3" d="m325.18,169.12c-4.88,0-8.42,3.8-8.42,9.03,0,5.73,4.04,9.88,9.6,9.88,2.5,0,4.72-.76,6.6-2.26l.11-.09-1.2-2.51-.18.13c-1.58,1.16-3.57,1.86-5.33,1.86-3.02,0-5.51-2.22-5.99-5.3l12.98-2.38.19-.03-.04-.18c-1.15-5.48-3.87-8.14-8.32-8.14Zm0,2.92c1.86,0,3.44,1.15,4.24,3.08l-9.29,1.71c.32-2.88,2.32-4.8,5.05-4.8Z"/>
    <path class="cls-3" d="m358.12,155.12c-1.71,0-3.1.53-4.14,1.58-1.52,1.53-2.27,4.15-2.24,7.79l-.05,5.26h-.83l-1.47,2.88h2.29v23.78l3.35-1.12v-22.66h3.97v-2.88h-3.93v-4.83c0-4.93.89-6.68,3.41-6.68.23,0,.42,0,.88.05l.2.02v-3.06l-.15-.03c-.58-.1-.92-.1-1.31-.1Z"/>
    <path class="cls-3" d="m374.54,178.82c0,1.7-.06,2.54-.23,3.47-.37,1.92-1.95,3.21-3.94,3.21-1.35,0-2.43-.58-3.2-1.71-.65-1.01-.82-2.11-.82-5.11v-8.94h-3.35v9.27c0,2.4.15,3.81.53,4.84,1.06,2.85,3.67,4.61,6.8,4.61,3.41,0,6.17-2.06,7.04-5.24.32-1.14.43-2.13.43-3.79v-9.69h-3.26v9.08Z"/>
    <polygon class="cls-3" points="387.22 160.21 383.89 162.97 383.82 163.02 383.82 169.74 382.99 169.74 381.48 172.66 383.82 172.66 383.82 187.52 387.22 187.52 387.22 172.66 390.91 172.66 390.91 169.74 387.22 169.74 387.22 160.21"/>
    <path class="cls-3" d="m406.25,178.82c0,1.7-.06,2.54-.23,3.47-.37,1.92-1.95,3.21-3.94,3.21-1.35,0-2.43-.58-3.2-1.71-.65-1.01-.82-2.11-.82-5.11v-8.94h-3.35v9.27c0,2.4.15,3.81.53,4.84,1.06,2.85,3.67,4.61,6.8,4.61,3.41,0,6.17-2.06,7.04-5.24.32-1.14.43-2.13.43-3.79v-9.69h-3.26v9.08Z"/>
    <path class="cls-3" d="m421.63,169.41c-1.18,0-2.19.53-3.22,1.71v-1.38h-3.25v17.78h3.25v-9.32c0-3.37,1.03-5.64,2.56-5.64.76,0,1.41.75,2,2.3l.13.34,2.01-3.09-.05-.1c-.91-1.73-2.07-2.61-3.43-2.61Z"/>
    <path class="cls-3" d="m444.75,177.45l-.04-.18c-1.15-5.48-3.87-8.14-8.32-8.14-4.88,0-8.42,3.8-8.42,9.03,0,5.73,4.04,9.88,9.6,9.88,2.5,0,4.72-.76,6.6-2.26l.11-.09-1.2-2.51-.18.13c-1.58,1.16-3.57,1.86-5.33,1.86-3.02,0-5.51-2.22-5.99-5.3l12.98-2.38.19-.03Zm-8.36-5.4c1.86,0,3.44,1.15,4.24,3.08l-9.29,1.71c.32-2.88,2.32-4.8,5.05-4.8Z"/>
  </g>
  <g>
    <g>
      <rect class="cls-2" x="3.38" y="3.38" width="493.24" height="87.23"/>
      <g>
        <path class="cls-1" d="m200.81,41.17h0c-6.54-4.26-16.22-6.41-29.02-6.41-11.2,0-20.09,1.83-26.69,5.46-6.57,3.63-9.86,8.25-9.86,13.84,0,6.01,3.88,10.88,11.67,14.59,6.35,3,14.66,4.5,24.94,4.5,11.51,0,20.53-1.81,27.05-5.42,6.53-3.6,9.78-8.23,9.78-13.87,0-5.03-2.63-9.26-7.89-12.69m-19.91,18.75c-2.32,1.25-5.3,1.87-8.93,1.87s-6.56-.63-8.94-1.89c-2.36-1.26-3.55-3.22-3.55-5.86s1.21-4.54,3.59-5.81c2.39-1.27,5.43-1.91,9.09-1.91,3.47,0,6.38.63,8.73,1.88,2.34,1.26,3.52,3.17,3.52,5.74,0,2.75-1.16,4.75-3.5,5.99"/>
        <path class="cls-1" d="m466.43,58.19c-3.12.71-6.25,1.44-9.37,2.17-3.07.72-6.5,1.53-9.41-.1-1.52-.85-3.08-2.35-3.08-4.22v-12.68h20.37v-8.54h-20.37v-11.73l-5.82-.04-31.04,16.27v4.03h11.19l.08,19.7c0,4.03,10.9,10.22,23.86,10.22,5.38,0,18.75-2.24,23.59-4.85,0,0,0-10.24,0-10.24Z"/>
        <path class="cls-1" d="m394.8,61.13h0c0-1.01.2-12.72.12-13.64-.08-.92-.21-1.73-.39-2.45-.19-.71-.46-1.34-.8-1.9-.35-.55-.79-1.11-1.32-1.67-1.39-1.53-8.73-6.37-22.04-6.63-12.67-.23-26.49,1.82-34,6.99v10.44c.22-1.53,20.4-8.97,29.79-6.57,1.81.46,5.86,1.24,5.79,4.75-1.47,1.76-11.54,2.76-16.63,3.44-3.81.52-20.93,2.56-21.08,11.14-.06,3.66,4.98,7.81,17.5,8.34,9.34.39,21.82-1.18,23.8-3.66,3.82,5.13,22.6,3.53,22.6,3.53.55-.63,4.14-8.2,4.09-9.27,0,0-7.41,1.01-7.41-2.85m-22.65,4.77c-6.59,3.44-18.22,3.67-18.75-1.1-.51-4.76,6.76-5.72,9.52-6.16,2.86-.43,9.44-1.9,9.44-1.9-.73.58-.22,9.15-.22,9.15"/>
        <path class="cls-1" d="m316.14,38.34c-3.94-2.4-9.4-3.58-16.4-3.58-4.75,0-8.74.44-11.97,1.32-3.23.88-5.39,2.62-8.82,5-1.93-2.11-4.42-3.68-7.45-4.74-3.03-1.06-7.15-1.58-12.39-1.58-4.84,0-7.04.48-10.48,1.45-3.42.97-5.49,2.37-8.27,4.88v-5.48h-21.74v37.56l21.51.05s-.02-19.6-.02-19.8c0-4.07,3.54-7.39,7.93-7.39,3.9,0,7.1,2.6,7.79,6.03l.03,21.11h26.26v-19.43s-.02-.32-.02-.32c0-4.07,3.55-7.39,7.94-7.39,3.88,0,7.1,2.6,7.79,6.03v.05s0,21.08,0,21.08l24.17-.03v-23.59c0-5.09-1.97-8.84-5.88-11.23"/>
        <path class="cls-1" d="m33.57,35.63v37.53h23.46v-37.53c-3.1,1.46-7.21,2.35-11.73,2.35s-8.63-.89-11.73-2.35Z"/>
        <path class="cls-1" d="m45.3,32.61c6.47,0,11.73-2.71,11.73-6.06s-5.25-6.04-11.73-6.04-11.74,2.72-11.74,6.04,5.25,6.06,11.74,6.06"/>
        <path class="cls-1" d="m101.97,49.45c-1.42-.25-3.1-.59-4.18-1.62-.94-.89-1.03-2.3.04-3.13.53-.41,1.2-.6,1.86-.72,1.5-.28,3.04-.27,4.56-.19,5.43.27,10.77,1.4,15.78,3.52,0-2.99,0-5.99.01-8.98,0-.53-7.99-1.96-8.81-2.11-3.03-.57-6.08-.98-9.16-1.17-5.93-.38-11.95.04-17.7,1.62-3.21.89-6.38,2.13-9.02,4.2-1.01.79-1.96,1.75-2.39,2.96-.71,1.96-.03,4.33,1.18,5.95,1.38,1.83,3.44,3.03,5.54,3.94,5.53,2.38,11.67,2.91,17.08,5.57.53.26,1.07.55,1.48.98,2.29,2.42-2.15,3.44-3.7,3.7-7.56,1.25-15.53-.83-22.18-4.43,0,3.32,0,6.64,0,9.96,9.57,2.61,19.5,4.31,29.4,3.7,5.94-.37,11.97-1.63,17-4.8,1.71-1.08,3.37-2.47,4.02-4.39.71-2.08.08-4.44-1.2-6.22-1.56-2.17-3.9-3.62-6.29-4.7-2.71-1.22-5.59-2.11-8.49-2.76-1.61-.36-3.24-.63-4.88-.86"/>
      </g>
      <rect class="cls-4" x="3.38" y="90.61" width="493.24" height="43.61"/>
      <g>
        <path class="cls-1" d="m144.04,113.27h0c0,1.28-.17,2.45-.51,3.51-.34,1.04-.83,1.95-1.46,2.71-.63.75-1.37,1.34-2.24,1.75-.86.43-1.83.63-2.87.63-2.31,0-3.98-.82-5.01-2.47v2.04h-4.19v-22.13h4.38v8.04c1.18-1.59,2.86-2.39,5.07-2.39,1.02,0,1.95.19,2.79.59.84.4,1.56.97,2.16,1.7.59.73,1.06,1.62,1.37,2.62.35,1.02.51,2.15.51,3.39m-4.38.02c0-1.51-.36-2.7-1.05-3.58-.68-.87-1.6-1.33-2.78-1.33s-2.14.45-2.83,1.33c-.68.88-1.02,2.08-1.02,3.61s.35,2.76,1.05,3.65c.7.87,1.64,1.31,2.85,1.31s2.06-.45,2.74-1.35c.69-.91,1.04-2.13,1.05-3.65"/>
        <path class="cls-1" d="m158.77,121.45v-2.29c-.65.95-1.43,1.64-2.3,2.06-.85.45-1.87.65-3.04.65s-2.12-.2-2.98-.66c-.86-.45-1.49-1.06-1.91-1.87-.25-.48-.43-1-.52-1.57-.1-.55-.15-1.3-.15-2.2v-10.16h4.38v8.8c0,.8.05,1.45.14,1.99.08.53.23.95.45,1.25.22.31.49.53.85.64.36.12.81.18,1.33.18,1.25,0,2.15-.38,2.69-1.15.55-.78.84-2.04.84-3.79v-7.95h4.37v16.04h-4.15Z"/>
        <path class="cls-1" d="m167.7,99.32h4.39v3.76h-4.39v-3.76Zm0,6.09h4.39v16.04h-4.39v-16.04Z"/>
        <rect class="cls-1" x="176.87" y="99.32" width="4.4" height="22.13"/>
        <path class="cls-1" d="m197.25,121.45v-2.04c-1.07,1.65-2.7,2.47-4.87,2.47-1.1,0-2.11-.2-3.01-.6-.88-.39-1.66-.96-2.29-1.7-.62-.75-1.11-1.64-1.45-2.69-.35-1.05-.52-2.21-.52-3.51s.16-2.4.49-3.45c.34-1.04.81-1.93,1.45-2.66.62-.74,1.34-1.3,2.2-1.7.84-.4,1.81-.59,2.87-.59s2.05.19,2.88.6c.84.42,1.52,1.03,2.04,1.81v-8.07h4.38v22.13h-4.16Zm-.09-8.1c0-1.57-.34-2.78-1.02-3.65-.69-.88-1.61-1.32-2.82-1.32s-2.14.43-2.81,1.29c-.69.87-1.04,2.08-1.04,3.64s.34,2.78,1.04,3.65c.67.88,1.62,1.31,2.81,1.31s2.17-.42,2.83-1.29c.68-.86,1.01-2.07,1.01-3.65"/>
        <rect class="cls-1" x="206.2" y="99.32" width="4.39" height="3.76"/>
        <rect class="cls-1" x="206.2" y="105.41" width="4.39" height="16.04"/>
        <path class="cls-1" d="m226,121.45v-9.2c0-1.36-.21-2.34-.62-2.88-.41-.54-1.13-.82-2.15-.82-1.21,0-2.11.37-2.66,1.11-.55.74-.83,1.91-.83,3.51v8.28h-4.39v-16.04h4.19v2.21c.71-.92,1.48-1.61,2.31-2.03.84-.42,1.86-.62,3.05-.62,1.02,0,1.94.19,2.74.58.84.38,1.46.93,1.87,1.61.18.26.33.54.44.81.12.28.2.57.25.9.08.32.12.68.14,1.08.03.4.04.87.04,1.39v10.1h-4.39Z"/>
        <path class="cls-1" d="m250.2,119.42h0c0,1.26-.08,2.26-.23,3.01-.16.74-.43,1.42-.84,2.03-1.29,1.95-3.57,2.94-6.87,2.94-4.59,0-7.1-1.69-7.52-5.04h4.42c.17.72.52,1.24,1,1.57.52.32,1.23.5,2.17.5,1.32,0,2.25-.31,2.79-.93.54-.62.82-1.68.82-3.2v-1.82c-1.1,1.66-2.74,2.48-4.89,2.48-1.05,0-1.99-.16-2.82-.54-.87-.36-1.57-.9-2.17-1.59-.6-.66-1.06-1.51-1.37-2.48-.33-.98-.49-2.08-.49-3.29s.16-2.33.49-3.33c.33-.99.81-1.85,1.43-2.56.62-.7,1.35-1.26,2.21-1.64.86-.39,1.81-.58,2.86-.58,1.12,0,2.04.19,2.77.58.73.38,1.4,1.06,2.02,1.97v-2.12h4.19v14.02Zm-4.19-6.41c0-1.47-.33-2.61-.99-3.41-.66-.8-1.58-1.21-2.78-1.21s-2.03.41-2.68,1.21c-.65.81-.96,1.94-.96,3.38s.32,2.65.98,3.49c.66.83,1.55,1.26,2.69,1.26s2.04-.43,2.71-1.26c.68-.84,1.02-2,1.02-3.46"/>
        <path class="cls-1" d="m277.11,127.13v-7.67c-.63.84-1.33,1.44-2.13,1.83-.8.38-1.76.58-2.86.58s-2.02-.2-2.88-.58c-.87-.39-1.59-.94-2.19-1.67-.61-.74-1.07-1.62-1.4-2.65-.33-1.03-.51-2.17-.51-3.44s.18-2.48.52-3.53c.35-1.06.84-1.95,1.45-2.72.63-.75,1.38-1.33,2.25-1.72.9-.4,1.88-.59,2.96-.59,2.23,0,3.88.8,4.95,2.42v-1.99h4.22v21.72h-4.37Zm.12-13.69c0-1.54-.35-2.75-1.03-3.6-.69-.86-1.66-1.28-2.9-1.28s-2.1.44-2.79,1.33c-.65.88-.99,2.13-.99,3.72s.34,2.72,1,3.58c.68.87,1.63,1.3,2.84,1.3s2.17-.44,2.85-1.34c.68-.88,1.01-2.12,1.01-3.72"/>
        <path class="cls-1" d="m297.16,121.45v-2.29c-.67.95-1.44,1.64-2.3,2.06-.85.45-1.87.65-3.03.65s-2.13-.2-2.98-.66c-.86-.45-1.5-1.06-1.93-1.87-.24-.48-.42-1-.52-1.57-.1-.55-.14-1.3-.14-2.2v-10.16h4.39v8.8c0,.8.04,1.45.15,1.99.06.53.22.95.43,1.25.21.31.51.53.87.64.34.12.79.18,1.33.18,1.24,0,2.14-.38,2.67-1.15.55-.78.82-2.04.82-3.79v-7.95h4.39v16.04h-4.15Z"/>
        <path class="cls-1" d="m316.37,121.45h0c-.13-.37-.22-.65-.26-.82-.02-.19-.04-.42-.04-.7-1.36,1.31-3.15,1.95-5.33,1.95-1.75,0-3.13-.41-4.14-1.25-.97-.84-1.46-2.03-1.46-3.57,0-1.13.31-2.08.9-2.82.62-.75,1.49-1.3,2.61-1.63.24-.07.47-.12.7-.16.2-.05.42-.1.68-.16.23-.05.52-.11.87-.14.33-.05.76-.1,1.24-.16.87-.12,1.55-.22,2.06-.32.51-.09.91-.22,1.2-.36.27-.12.44-.29.52-.48.08-.21.12-.46.12-.78,0-1.42-.97-2.12-2.9-2.12-1.02,0-1.75.18-2.22.53-.46.36-.77.98-.93,1.9h-4.15c.26-3.59,2.74-5.38,7.44-5.38,2.55,0,4.44.51,5.66,1.53.3.23.52.45.69.69.18.25.33.51.43.82.12.3.19.65.24,1.06.04.41.07.92.07,1.51v.45s-.05.44-.05.44l-.02,2.33-.04,2.13v1.22c0,.58.02,1.08.04,1.51.02.41.05.8.1,1.11.05.32.1.63.17.88.07.27.16.52.26.8h-4.44Zm-.37-7.8c-.2.11-.38.2-.52.27-.15.1-.34.16-.54.21-.22.05-.48.12-.79.16-.33.06-.73.12-1.24.18-1.23.19-2.09.44-2.55.81-.47.35-.7.88-.7,1.59s.23,1.23.67,1.61c.44.4,1.06.58,1.82.58,1.2,0,2.14-.32,2.83-.96.68-.64,1.02-1.51,1.02-2.65v-1.79Z"/>
        <rect class="cls-1" x="324.65" y="99.32" width="4.38" height="22.13"/>
        <path class="cls-1" d="m333.81,99.32h4.38v3.76h-4.38v-3.76Zm0,6.09h4.38v16.04h-4.38v-16.04Z"/>
        <path class="cls-1" d="m352.3,121.48c-.57.08-1.07.11-1.42.14-.35.02-.77.02-1.26.02-1.32,0-2.34-.15-3.07-.47-.72-.33-1.23-.86-1.52-1.61-.06-.22-.11-.42-.17-.61-.04-.19-.09-.43-.12-.68-.03-.27-.05-.6-.06-.99-.02-.39-.02-.88-.02-1.47v-7.42h-2.64v-2.98h2.64v-4.86h4.36v4.86h3.28v2.95h-3.25v7.58c0,.48.02.88.07,1.19.04.32.13.55.26.71.13.17.33.29.59.35.26.04.59.08,1.01.08.35,0,.8-.04,1.32-.1v3.31Z"/>
        <path class="cls-1" d="m366.34,121.38c-.32.89-.62,1.62-.87,2.2-.26.59-.51,1.09-.78,1.48-.27.4-.55.73-.83.94-.29.24-.62.46-1,.65-.22.12-.41.21-.6.27-.18.06-.39.11-.62.16-.25.02-.54.04-.9.05-.35.01-.8.01-1.37.01h-.28l-1.83-.02v-3.59h1.76c.93,0,1.57-.16,1.95-.48.38-.32.57-.85.57-1.59l-.04-.5-.11-.44-5.67-15.14h4.75l2.61,7.87c.17.46.31.97.46,1.49.13.53.32,1.29.53,2.25.14-.51.25-.95.35-1.33.09-.38.2-.74.29-1.03.09-.31.17-.57.24-.84.05-.25.14-.49.22-.74l2.5-7.67h4.56l-5.89,15.98Z"/>
      </g>
    </g>
    <path class="cls-1" d="m496.62,3.38v130.84H3.38v-43.61h0V3.38h493.24m3.38-3.38H0v134.22s0,3.38,0,3.38h500V0h0Z"/>
  </g>
</svg>