<svg xmlns="http://www.w3.org/2000/svg" fill="none" viewBox="0 0 74 38" height="36" data-cy="header-logo">
    <path fill="#00A0E6" d="M51.668 30.844c4.805 0 6.778-1.552 7.305-5.314l2.449-17.403h-4.959l-2.47 17.56c-.121.935-.69 1.342-1.828 1.342s-1.625-.407-1.503-1.341l2.469-17.56h-4.969L45.794 25.53c-.527 3.82 1.177 5.313 5.874 5.313m-14.612-8.087L40 11.857h.42l-.81 10.9zm-6.857 7.558h4.814l1.07-3.956h3.259l-.294 3.956h4.887l.935-22.188h-8.16zm-15.029 0h4.563L21.269 19.4h.264l2.42 10.915h4.976l3.088-22.188h-4.562L25.842 19.62h-.26L23.206 8.127h-4.947zm-15.17 0h4.969l1.352-9.697h.507l1.88 9.697h5.01l-2.276-11.737 5.039-10.45h-5.01L7.21 16.966h-.38L9.194 0h-5.01zm64.704 7.04 2.44-17.611h4.835l.527-3.75H67.67l.56-4.117h5.243L74 8.127H63.789l-4.053 29.228z"></path>
</svg>